<?xml version="1.0" encoding="UTF-8" standalone="no"?>
<!-- Created with Inkscape (http://www.inkscape.org/) -->

<svg
   xmlns:dc="http://purl.org/dc/elements/1.1/"
   xmlns:cc="http://creativecommons.org/ns#"
   xmlns:rdf="http://www.w3.org/1999/02/22-rdf-syntax-ns#"
   xmlns:svg="http://www.w3.org/2000/svg"
   xmlns="http://www.w3.org/2000/svg"
   xmlns:sodipodi="http://sodipodi.sourceforge.net/DTD/sodipodi-0.dtd"
   xmlns:inkscape="http://www.inkscape.org/namespaces/inkscape"
   width="179.34912mm"
   height="128.5mm"
   viewBox="0 0 179.34913 128.50002"
   version="1.1"
   id="svg8"
   inkscape:version="0.92.5 (2060ec1f9f, 2020-04-08)"
   sodipodi:docname="MyModule.svg">
  <defs
     id="defs2" />
  <sodipodi:namedview
     id="base"
     pagecolor="#ffffff"
     bordercolor="#666666"
     borderopacity="1.0"
     inkscape:pageopacity="0.0"
     inkscape:pageshadow="2"
     inkscape:zoom="0.98994949"
     inkscape:cx="333.61606"
     inkscape:cy="190.16649"
     inkscape:document-units="mm"
     inkscape:current-layer="layer1"
     showgrid="false"
     units="mm"
     inkscape:snap-bbox="true"
     inkscape:snap-page="true"
     inkscape:bbox-nodes="false"
     inkscape:snap-bbox-edge-midpoints="false"
     inkscape:window-width="2560"
     inkscape:window-height="1377"
     inkscape:window-x="-8"
     inkscape:window-y="-8"
     inkscape:window-maximized="1"
     inkscape:snap-bbox-midpoints="true"
     inkscape:snap-nodes="false"
     fit-margin-top="0"
     fit-margin-left="0"
     fit-margin-right="0"
     fit-margin-bottom="0" />
  <metadata
     id="metadata5">
    <rdf:RDF>
      <cc:Work
         rdf:about="">
        <dc:format>image/svg+xml</dc:format>
        <dc:type
           rdf:resource="http://purl.org/dc/dcmitype/StillImage" />
        <dc:title />
      </cc:Work>
    </rdf:RDF>
  </metadata>
  <g
     inkscape:label="Layer 1"
     inkscape:groupmode="layer"
     id="layer1"
     transform="translate(-1.336349,-168.2327)"
     style="display:inline">
    <rect
       style="display:inline;opacity:1;vector-effect:none;fill:#e6e6e6;fill-opacity:1;fill-rule:evenodd;stroke:none;stroke-width:1.57516706;stroke-linecap:butt;stroke-linejoin:miter;stroke-miterlimit:4;stroke-dasharray:none;stroke-dashoffset:0;stroke-opacity:1;paint-order:normal"
       id="rect420"
       width="179.34912"
       height="128.5"
       x="1.336349"
       y="168.2327" />
    <g
       aria-label="My Module"
       style="font-style:normal;font-variant:normal;font-weight:normal;font-stretch:normal;font-size:4.93888855px;line-height:6.61458302px;font-family:'Gotham Rounded';-inkscape-font-specification:'Gotham Rounded';font-variant-ligatures:normal;font-variant-caps:normal;font-variant-numeric:normal;font-feature-settings:normal;text-align:center;letter-spacing:0px;word-spacing:0px;writing-mode:lr-tb;text-anchor:middle;display:inline;fill:#000000;fill-opacity:1;stroke:none;stroke-width:0.26458332px;stroke-linecap:butt;stroke-linejoin:miter;stroke-opacity:1"
       id="text1229">
      <path
         d="m 3.8783293,178.67396 c 0,0.1778 0.1397,0.3175 0.3174999,0.3175 0.1778,0 0.3217334,-0.1397 0.3217334,-0.3175 v -1.4732 l 0.5630333,0.86784 c 0.067733,0.1016 0.1524,0.1651 0.2709333,0.1651 0.1185333,0 0.2032,-0.0635 0.2709333,-0.1651 l 0.5715,-0.88054 v 1.47744 c 0,0.1778 0.1439333,0.32596 0.3217333,0.32596 0.1820333,0 0.3259666,-0.14393 0.3259666,-0.32596 v -2.35374 c 0,-0.18203 -0.1439333,-0.32596 -0.3259666,-0.32596 h -0.071967 c -0.1312333,0 -0.2243666,0.055 -0.2921,0.1651 l -0.7916333,1.28693 -0.7873999,-1.2827 c -0.059267,-0.0974 -0.1566333,-0.16933 -0.2963333,-0.16933 h -0.071967 c -0.1820333,0 -0.3259666,0.14393 -0.3259666,0.32596 z"
         style="font-style:normal;font-variant:normal;font-weight:normal;font-stretch:normal;font-size:4.23333311px;font-family:'Gotham Rounded';-inkscape-font-specification:'Gotham Rounded';text-align:center;text-anchor:middle;stroke-width:0.26458332px"
         id="path5029"
         inkscape:connector-curvature="0" />
      <path
         d="m 7.9515894,179.6561 c 0.3852333,0 0.5757333,-0.17357 0.7662333,-0.635 l 0.7916333,-1.90077 c 0.0127,-0.0296 0.029633,-0.1016 0.029633,-0.1524 0,-0.16933 -0.1397,-0.29633 -0.3048,-0.29633 -0.1651,0 -0.2582333,0.11006 -0.3090333,0.24553 l -0.474133,1.31657 -0.4910667,-1.3208 c -0.055033,-0.1524 -0.1481666,-0.2413 -0.3090333,-0.2413 -0.1778,0 -0.3175,0.127 -0.3175,0.30903 0,0.0423 0.016933,0.10583 0.033867,0.14817 l 0.7747,1.79493 -0.021167,0.0508 c -0.059267,0.1143 -0.1143,0.13547 -0.2286,0.13547 -0.046567,0 -0.080433,-0.008 -0.1354667,-0.0254 -0.0254,-0.008 -0.055033,-0.0169 -0.1058333,-0.0169 -0.1312333,0 -0.254,0.10584 -0.254,0.26247 0,0.15663 0.1100667,0.23283 0.2032,0.2667 0.1058333,0.0381 0.2074333,0.0593 0.3513667,0.0593 z"
         style="font-style:normal;font-variant:normal;font-weight:normal;font-stretch:normal;font-size:4.23333311px;font-family:'Gotham Rounded';-inkscape-font-specification:'Gotham Rounded';text-align:center;text-anchor:middle;stroke-width:0.26458332px"
         id="path5031"
         inkscape:connector-curvature="0" />
      <path
         d="m 11.303198,178.67396 c 0,0.1778 0.1397,0.3175 0.3175,0.3175 0.1778,0 0.321734,-0.1397 0.321734,-0.3175 v -1.4732 l 0.563033,0.86784 c 0.06773,0.1016 0.1524,0.1651 0.270933,0.1651 0.118534,0 0.2032,-0.0635 0.270934,-0.1651 l 0.5715,-0.88054 v 1.47744 c 0,0.1778 0.143933,0.32596 0.321733,0.32596 0.182033,0 0.325966,-0.14393 0.325966,-0.32596 v -2.35374 c 0,-0.18203 -0.143933,-0.32596 -0.325966,-0.32596 h -0.07197 c -0.131233,0 -0.224366,0.055 -0.2921,0.1651 l -0.791633,1.28693 -0.7874,-1.2827 c -0.05927,-0.0974 -0.156633,-0.16933 -0.296333,-0.16933 h -0.07197 c -0.182033,0 -0.325967,0.14393 -0.325967,0.32596 z"
         style="font-style:normal;font-variant:normal;font-weight:normal;font-stretch:normal;font-size:4.23333311px;font-family:'Gotham Rounded';-inkscape-font-specification:'Gotham Rounded';text-align:center;text-anchor:middle;stroke-width:0.26458332px"
         id="path5033"
         inkscape:connector-curvature="0" />
      <path
         d="m 16.019925,179.01686 c 0.706967,0 1.2319,-0.52916 1.2319,-1.1811 v -0.008 c 0,-0.65194 -0.5207,-1.17264 -1.223433,-1.17264 -0.706967,0 -1.2319,0.52917 -1.2319,1.1811 v 0.008 c 0,0.65193 0.5207,1.17263 1.223433,1.17263 z m 0.0085,-0.55456 c -0.3556,0 -0.5969,-0.2921 -0.5969,-0.62654 v -0.008 c 0,-0.33444 0.220133,-0.61807 0.588433,-0.61807 0.3556,0 0.5969,0.2921 0.5969,0.62653 v 0.008 c 0,0.33443 -0.220133,0.61807 -0.588433,0.61807 z"
         style="font-style:normal;font-variant:normal;font-weight:normal;font-stretch:normal;font-size:4.23333311px;font-family:'Gotham Rounded';-inkscape-font-specification:'Gotham Rounded';text-align:center;text-anchor:middle;stroke-width:0.26458332px"
         id="path5035"
         inkscape:connector-curvature="0" />
      <path
         d="m 19.999523,176.17206 c 0,-0.1778 -0.143933,-0.32173 -0.321733,-0.32173 -0.1778,0 -0.321733,0.14393 -0.321733,0.32173 v 0.82127 c -0.1524,-0.18203 -0.364067,-0.33867 -0.706967,-0.33867 -0.537633,0 -1.032933,0.41487 -1.032933,1.17264 v 0.008 c 0,0.75777 0.503766,1.17264 1.032933,1.17264 0.334433,0 0.550333,-0.15664 0.706967,-0.3683 v 0.0296 c 0,0.1778 0.143933,0.32173 0.321733,0.32173 0.1778,0 0.321733,-0.14393 0.321733,-0.32173 z m -1.185333,1.0287 c 0.300567,0 0.550333,0.24977 0.550333,0.62654 v 0.008 c 0,0.37677 -0.249766,0.62654 -0.550333,0.62654 -0.300567,0 -0.554567,-0.24977 -0.554567,-0.62654 v -0.008 c 0,-0.381 0.254,-0.62654 0.554567,-0.62654 z"
         style="font-style:normal;font-variant:normal;font-weight:normal;font-stretch:normal;font-size:4.23333311px;font-family:'Gotham Rounded';-inkscape-font-specification:'Gotham Rounded';text-align:center;text-anchor:middle;stroke-width:0.26458332px"
         id="path5037"
         inkscape:connector-curvature="0" />
      <path
         d="m 22.640196,176.99333 c 0,-0.1778 -0.143933,-0.32173 -0.321733,-0.32173 -0.1778,0 -0.321733,0.14393 -0.321733,0.32173 v 0.96943 c 0,0.3048 -0.156634,0.46144 -0.402167,0.46144 -0.245533,0 -0.389467,-0.15664 -0.389467,-0.46144 v -0.96943 c 0,-0.1778 -0.143933,-0.32173 -0.321733,-0.32173 -0.1778,0 -0.321733,0.14393 -0.321733,0.32173 v 1.17263 c 0,0.5207 0.283633,0.84244 0.770466,0.84244 0.325967,0 0.516467,-0.17357 0.664634,-0.36407 v 0.0254 c 0,0.1778 0.143933,0.32173 0.321733,0.32173 0.1778,0 0.321733,-0.14393 0.321733,-0.32173 z"
         style="font-style:normal;font-variant:normal;font-weight:normal;font-stretch:normal;font-size:4.23333311px;font-family:'Gotham Rounded';-inkscape-font-specification:'Gotham Rounded';text-align:center;text-anchor:middle;stroke-width:0.26458332px"
         id="path5039"
         inkscape:connector-curvature="0" />
      <path
         d="m 23.245762,178.66973 c 0,0.1778 0.143933,0.32173 0.321733,0.32173 0.1778,0 0.321734,-0.14393 0.321734,-0.32173 v -2.49767 c 0,-0.1778 -0.143934,-0.32173 -0.321734,-0.32173 -0.1778,0 -0.321733,0.14393 -0.321733,0.32173 z"
         style="font-style:normal;font-variant:normal;font-weight:normal;font-stretch:normal;font-size:4.23333311px;font-family:'Gotham Rounded';-inkscape-font-specification:'Gotham Rounded';text-align:center;text-anchor:middle;stroke-width:0.26458332px"
         id="path5041"
         inkscape:connector-curvature="0" />
      <path
         d="m 25.018403,177.65373 c 0.0508,-0.2921 0.224367,-0.4826 0.491067,-0.4826 0.270933,0 0.440266,0.19473 0.478366,0.4826 z m 1.341967,1.08797 c 0.04657,-0.0423 0.08467,-0.10584 0.08467,-0.1905 0,-0.14394 -0.105833,-0.254 -0.249766,-0.254 -0.06773,0 -0.110067,0.0169 -0.156634,0.0508 -0.131233,0.0974 -0.2794,0.1524 -0.4572,0.1524 -0.287866,0 -0.491066,-0.1524 -0.554566,-0.4445 h 1.274233 c 0.169333,0 0.300567,-0.12277 0.300567,-0.30904 0,-0.4699 -0.334434,-1.0922 -1.0922,-1.0922 -0.6604,0 -1.121834,0.5334 -1.121834,1.1811 v 0.008 c 0,0.69427 0.503767,1.17263 1.185334,1.17263 0.3302,0 0.588433,-0.10583 0.7874,-0.27516 z"
         style="font-style:normal;font-variant:normal;font-weight:normal;font-stretch:normal;font-size:4.23333311px;font-family:'Gotham Rounded';-inkscape-font-specification:'Gotham Rounded';text-align:center;text-anchor:middle;stroke-width:0.26458332px"
         id="path5043"
         inkscape:connector-curvature="0" />
    </g>
    <g
       aria-label="Pitch"
       style="font-style:normal;font-variant:normal;font-weight:300;font-stretch:normal;font-size:4.93888855px;line-height:6.61458302px;font-family:'Gotham Rounded';-inkscape-font-specification:'Gotham Rounded Light';font-variant-ligatures:normal;font-variant-caps:normal;font-variant-numeric:normal;font-feature-settings:normal;text-align:center;letter-spacing:0px;word-spacing:0px;writing-mode:lr-tb;text-anchor:middle;display:inline;fill:#000000;fill-opacity:1;stroke:none;stroke-width:0.26458332px;stroke-linecap:butt;stroke-linejoin:miter;stroke-opacity:1"
       id="text4944"
       transform="translate(0,10.583334)">
      <path
         d="m 10.377818,215.46915 c 0,0.0593 0.0508,0.11007 0.110067,0.11007 0.05927,0 0.110067,-0.0508 0.110067,-0.11007 v -1.01176 h 0.8001 c 0.618066,0 1.155699,-0.32174 1.155699,-0.94404 v -0.008 c 0,-0.5715 -0.448733,-0.90594 -1.100666,-0.90594 h -0.9652 c -0.05927,0 -0.110067,0.0508 -0.110067,0.11007 z m 0.220134,-1.21496 v -1.45204 h 0.8382 c 0.533399,0 0.897466,0.24554 0.897466,0.71544 v 0.008 c 0,0.44027 -0.372533,0.72814 -0.922866,0.72814 z"
         style="font-style:normal;font-variant:normal;font-weight:300;font-stretch:normal;font-size:4.23333311px;font-family:'Gotham Rounded';-inkscape-font-specification:'Gotham Rounded Light';text-align:center;text-anchor:middle;stroke-width:0.26458332px"
         id="path5046"
         inkscape:connector-curvature="0" />
      <path
         d="m 13.163219,212.73442 c 0,0.072 0.05503,0.127 0.127,0.127 0.07197,0 0.131233,-0.055 0.131233,-0.127 v -0.072 c 0,-0.072 -0.05927,-0.127 -0.131233,-0.127 -0.07197,0 -0.127,0.055 -0.127,0.127 z m 0.0254,2.73897 c 0,0.0635 0.04657,0.10583 0.105833,0.10583 0.05927,0 0.1016,-0.0423 0.1016,-0.10583 v -1.9812 c 0,-0.0635 -0.04657,-0.10584 -0.105833,-0.10584 -0.05927,0 -0.1016,0.0466 -0.1016,0.10584 z"
         style="font-style:normal;font-variant:normal;font-weight:300;font-stretch:normal;font-size:4.23333311px;font-family:'Gotham Rounded';-inkscape-font-specification:'Gotham Rounded Light';text-align:center;text-anchor:middle;stroke-width:0.26458332px"
         id="path5048"
         inkscape:connector-curvature="0" />
      <path
         d="m 14.928717,215.60039 c 0.122767,0 0.220134,-0.0254 0.3048,-0.055 0.04233,-0.0169 0.06773,-0.0466 0.06773,-0.0889 0,-0.0508 -0.04657,-0.0931 -0.09313,-0.0931 -0.02963,0 -0.09737,0.0423 -0.245533,0.0423 -0.249767,0 -0.4318,-0.11006 -0.4318,-0.4191 v -1.39276 h 0.677333 c 0.0508,0 0.09737,-0.0423 0.09737,-0.0931 0,-0.0508 -0.04657,-0.0974 -0.09737,-0.0974 h -0.677333 v -0.60114 c 0,-0.0593 -0.04657,-0.10583 -0.105833,-0.10583 -0.05927,0 -0.1016,0.0466 -0.1016,0.10583 v 0.60114 h -0.232833 c -0.0508,0 -0.09737,0.0423 -0.09737,0.0931 0,0.0508 0.04657,0.0974 0.09737,0.0974 h 0.232833 v 1.41393 c 0,0.41063 0.270933,0.59267 0.605366,0.59267 z"
         style="font-style:normal;font-variant:normal;font-weight:300;font-stretch:normal;font-size:4.23333311px;font-family:'Gotham Rounded';-inkscape-font-specification:'Gotham Rounded Light';text-align:center;text-anchor:middle;stroke-width:0.26458332px"
         id="path5050"
         inkscape:connector-curvature="0" />
      <path
         d="m 16.790392,215.61309 c 0.3683,0 0.618067,-0.1524 0.833967,-0.37254 0.01693,-0.0169 0.0254,-0.0423 0.0254,-0.0635 0,-0.0508 -0.0508,-0.1016 -0.1016,-0.1016 -0.02963,0 -0.0508,0.0169 -0.06773,0.0339 -0.173566,0.17357 -0.397933,0.30903 -0.677333,0.30903 -0.4953,0 -0.889,-0.41486 -0.889,-0.93556 v -0.008 c 0,-0.51647 0.381,-0.9271 0.872067,-0.9271 0.2921,0 0.4953,0.1397 0.668866,0.3048 0.01693,0.0169 0.04657,0.0254 0.07197,0.0254 0.05927,0 0.105833,-0.0466 0.105833,-0.10583 0,-0.0296 -0.0127,-0.0593 -0.02963,-0.0762 -0.194733,-0.18204 -0.440267,-0.3429 -0.8128,-0.3429 -0.618067,0 -1.100667,0.52493 -1.100667,1.1303 v 0.008 c 0,0.60537 0.478367,1.12184 1.100667,1.12184 z"
         style="font-style:normal;font-variant:normal;font-weight:300;font-stretch:normal;font-size:4.23333311px;font-family:'Gotham Rounded';-inkscape-font-specification:'Gotham Rounded Light';text-align:center;text-anchor:middle;stroke-width:0.26458332px"
         id="path5052"
         inkscape:connector-curvature="0" />
      <path
         d="m 18.252215,215.47339 c 0,0.0635 0.04657,0.10583 0.105833,0.10583 0.05927,0 0.1016,-0.0423 0.1016,-0.10583 v -1.15994 c 0,-0.44873 0.325967,-0.77046 0.7493,-0.77046 0.436033,0 0.6858,0.2921 0.6858,0.7366 v 1.1938 c 0,0.0635 0.04657,0.10583 0.105833,0.10583 0.05927,0 0.1016,-0.0423 0.1016,-0.10583 v -1.2319 c 0,-0.51647 -0.3175,-0.889 -0.8636,-0.889 -0.3937,0 -0.635,0.19896 -0.778933,0.45296 v -1.2446 c 0,-0.0593 -0.04657,-0.10583 -0.105833,-0.10583 -0.05927,0 -0.1016,0.0466 -0.1016,0.10583 z"
         style="font-style:normal;font-variant:normal;font-weight:300;font-stretch:normal;font-size:4.23333311px;font-family:'Gotham Rounded';-inkscape-font-specification:'Gotham Rounded Light';text-align:center;text-anchor:middle;stroke-width:0.26458332px"
         id="path5054"
         inkscape:connector-curvature="0" />
    </g>
    <path
       style="fill:none;stroke:#000000;stroke-width:0.26458332px;stroke-linecap:butt;stroke-linejoin:miter;stroke-opacity:1"
       d="m 8.5526262,286.84373 c 0.7968438,0.25734 -0.1992108,0.93792 0,1.33634 0.056345,0.11269 0.210924,0.15458 0.2672694,0.26727 0.052985,0.10597 -0.05464,0.74717 0,0.80181 0.062996,0.063 0.2672697,-0.0891 0.2672697,0 0,0.0891 -0.3563594,0 -0.2672697,0 1.2166874,0 0.015285,0.12599 0.8018087,-0.26727 0.079684,-0.0398 0.2042734,0.063 0.2672696,0 0.1408631,-0.14086 0.1781801,-0.35636 0.2672691,-0.53454 0.08909,-0.17818 0.204274,-0.34555 0.26727,-0.53454 0.02817,-0.0845 -0.04942,-0.19314 0,-0.26727 0.139776,-0.20966 0.394763,-0.32487 0.534539,-0.53453 0.04942,-0.0741 -0.02817,-0.18275 0,-0.26727 0.645315,-1.93595 -0.07705,0.42137 0.534539,-0.80181 0.03984,-0.0797 -0.063,-0.20428 0,-0.26727 0.063,-0.063 0.204273,0.063 0.267269,0 0.063,-0.063 -0.03984,-0.18759 0,-0.26727 0.05635,-0.11269 0.17818,-0.17818 0.26727,-0.26727"
       id="path49"
       inkscape:connector-curvature="0" />
    <path
       style="fill:none;stroke:#000000;stroke-width:0.26458332px;stroke-linecap:butt;stroke-linejoin:miter;stroke-opacity:1"
       d="m 16.303442,284.97284 c -0.421673,0.87156 -1.125511,1.56874 -1.603617,2.40542 -0.781538,1.3677 -0.287539,0.77047 -1.069078,2.13816 -0.159369,0.2789 -0.369274,0.52637 -0.534539,0.80181 -0.303401,0.50567 -0.537997,1.07599 -0.801809,1.60362 -0.08909,0.17818 -0.126406,0.39367 -0.267269,0.53454 -0.614223,0.61422 -0.534539,-0.0693 -0.534539,0.53454"
       id="path51"
       inkscape:connector-curvature="0" />
    <path
       style="fill:none;stroke:#000000;stroke-width:0.26458332px;stroke-linecap:butt;stroke-linejoin:miter;stroke-opacity:1"
       d="m 18.174329,288.18007 c 1.035539,-0.13658 -0.588487,1.01513 -0.267269,1.33635 0.063,0.063 0.204273,-0.063 0.267269,0 0.063,0.063 -0.063,0.20427 0,0.26727 0.01076,0.0107 0.970927,0 1.069078,0 0.08909,0 0.17818,0 0.26727,0 0.08909,0 0.204273,0.063 0.267269,0 0.125992,-0.12599 -0.07968,-0.37517 0,-0.53454 0.05635,-0.11269 0.210925,-0.15458 0.26727,-0.26727 0.04833,-0.0967 0,-1.15045 0,-1.33635 0,-0.0891 0.063,-0.20427 0,-0.26727 -0.125992,-0.12599 -0.375171,0.0797 -0.534539,0 -0.660531,-0.33026 0.09225,-0.26726 -0.534539,-0.26726"
       id="path53"
       inkscape:connector-curvature="0" />
    <path
       style="fill:none;stroke:#000000;stroke-width:0.26458332px;stroke-linecap:butt;stroke-linejoin:miter;stroke-opacity:1"
       d="m 23.51972,286.84373 c -0.35636,0.26727 -0.712719,0.53453 -1.069079,0.8018 0,0.0891 0.03984,0.18759 0,0.26727 -0.05635,0.11269 -0.210924,0.15458 -0.267269,0.26727 -0.07968,0.15937 0.125992,0.40855 0,0.53454 -0.063,0.063 -0.204274,-0.063 -0.26727,0 -0.01075,0.0107 0,0.97093 0,1.06908 0,0.12037 -0.04067,0.72047 0,0.80181 0.295474,0.59095 0.165879,0.0829 0.534539,0.26727 0.112691,0.0563 0.154579,0.21092 0.26727,0.26727 0.01532,0.008 1.248117,0.0441 1.336348,0 0.11269,-0.0564 0.210924,-0.15458 0.267269,-0.26727 0.03514,-0.0703 0,-0.92932 0,-1.06908"
       id="path55"
       inkscape:connector-curvature="0" />
    <path
       style="fill:none;stroke:#000000;stroke-width:0.26458332px;stroke-linecap:butt;stroke-linejoin:miter;stroke-opacity:1"
       d="m 26.726954,284.4383 c -0.183855,0.64592 0.132623,1.47504 0,2.13816 -0.03907,0.19534 -0.228201,0.33919 -0.26727,0.53454 -0.05357,0.26784 0,1.25559 0,1.60361 0,0.97999 0,1.95998 0,2.93997"
       id="path78"
       inkscape:connector-curvature="0" />
    <path
       style="fill:none;stroke:#000000;stroke-width:0.26458332px;stroke-linecap:butt;stroke-linejoin:miter;stroke-opacity:1"
       d="m 23.786989,288.71461 c 0.356359,-0.17818 0.712719,-0.35636 1.069078,-0.53454 0.17818,-0.0891 0.345551,-0.20427 0.534539,-0.26727 0.260333,-0.0868 1.081745,0.0849 1.336348,0 0.188988,-0.063 0.345551,-0.20427 0.534539,-0.26727 0.167753,-0.0559 0.853917,0 1.069079,0"
       id="path80"
       inkscape:connector-curvature="0" />
    <path
       style="fill:none;stroke:#000000;stroke-width:0.26458332px;stroke-linecap:butt;stroke-linejoin:miter;stroke-opacity:1"
       d="m 10.156243,258.51316 c 0.311155,2.09152 -0.9971034,0.19529 -1.3363474,0.53453 -0.062996,0.063 0.062996,0.20428 0,0.26727 -0.062996,0.063 -0.2042734,-0.063 -0.2672694,0 -0.062996,0.063 0.062996,0.20428 0,0.26728 -0.062996,0.063 -0.2042736,-0.063 -0.2672696,0 -0.062996,0.063 0,0.17817 0,0.26726 0,0.0891 0,0.17818 0,0.26727 0,0.46206 -0.027934,0.62628 0.2672696,1.06908 0.069888,0.10483 0.1545789,0.21093 0.2672694,0.26727 0.079685,0.0398 0.2042737,-0.063 0.2672697,0 0.062996,0.063 -0.062996,0.20427 0,0.26727 0.062996,0.063 0.2042734,-0.063 0.2672693,0 0.062996,0.063 -0.062996,0.20427 0,0.26727 0.5529903,0.55299 -0.021616,-0.84504 0.5345393,0.26727 0.048327,0.0967 0,1.15045 0,1.33635 0,0.17818 0,0.35636 0,0.53454 0,0.0891 0.062996,0.20427 0,0.26727 -0.062996,0.063 -0.2042737,-0.063 -0.2672696,0 -0.062996,0.063 0.062996,0.20427 0,0.26727 -0.062996,0.063 -0.1781797,0 -0.2672697,0 -0.534539,0 -1.069078,0 -1.603617,0 -0.08909,0 -0.1781797,0 -0.2672694,0 -0.08909,0 -0.2042737,0.063 -0.2672697,0 -0.062996,-0.063 0,-0.17818 0,-0.26727"
       id="path91"
       inkscape:connector-curvature="0" />
    <path
       style="fill:none;stroke:#000000;stroke-width:0.26458332px;stroke-linecap:butt;stroke-linejoin:miter;stroke-opacity:1"
       d="m 12.294399,262.78947 c 0,0.44545 0,0.8909 0,1.33635 0,0.0891 0.03984,0.18758 0,0.26727 -0.05635,0.11269 -0.210924,0.15458 -0.267269,0.26727 -0.07968,0.15936 0.17818,0.53453 0,0.53453 -0.08909,0 0,-0.17817 0,-0.26726"
       id="path93"
       inkscape:connector-curvature="0" />
    <path
       style="fill:none;stroke:#000000;stroke-width:0.26458332px;stroke-linecap:butt;stroke-linejoin:miter;stroke-opacity:1"
       d="m 12.02713,260.38404 1.069078,-1.06908"
       id="path95"
       inkscape:connector-curvature="0" />
    <path
       style="fill:none;stroke:#000000;stroke-width:0.26458332px;stroke-linecap:butt;stroke-linejoin:miter;stroke-opacity:1"
       d="m 16.036173,262.78947 c -0.324651,-0.15666 -1.254069,-0.96637 -1.603617,-0.26727 -0.03984,0.0797 0,0.17818 0,0.26727 0,0.0891 0,0.17818 0,0.26727 0,0.0891 0,0.17818 0,0.26727 0,0.0891 -0.03984,0.18758 0,0.26727 0.05635,0.11269 0.154579,0.21092 0.267269,0.26727 0.07028,0.0351 0.929318,0 1.069078,0 0.08909,0 0.17818,0 0.26727,0 0.08909,0 0.187585,0.0398 0.267269,0 0.112691,-0.0563 0.141278,-0.26727 0.26727,-0.26727 0.08909,0 0,0.17818 0,0.26727 0,0.17818 0,0.35636 0,0.53454 0,0.18944 0.03455,1.53451 0,1.60361 -0.05635,0.11269 -0.210924,0.15458 -0.26727,0.26727 -0.03984,0.0797 0.03984,0.18759 0,0.26727 -0.05635,0.11269 -0.197381,0.16244 -0.267269,0.26727 -0.110503,0.16576 -0.126406,0.39368 -0.26727,0.53454 -0.649144,0.64914 -0.392464,-0.0795 -0.801808,0.53454 -0.162765,0.24415 -0.228137,0.64861 -0.534539,0.80181 -0.07968,0.0398 -0.204274,-0.063 -0.26727,0 -0.140863,0.14086 -0.126406,0.39367 -0.267269,0.53454 -0.03769,0.0377 -0.746984,0.0274 -0.801809,0 -0.112691,-0.0564 -0.154579,-0.21093 -0.267269,-0.26727 -0.07968,-0.0398 -0.204274,0.063 -0.26727,0 -0.063,-0.063 0,-0.17818 0,-0.26727"
       id="path97"
       inkscape:connector-curvature="0" />
    <path
       style="fill:none;stroke:#000000;stroke-width:0.26458332px;stroke-linecap:butt;stroke-linejoin:miter;stroke-opacity:1"
       d="m 18.441599,263.59128 c 0,0.35636 0,0.71272 0,1.06908 0,0.26727 0,0.53453 0,0.8018 0,0.0891 -0.08909,0.26727 0,0.26727 0.665,0 -0.0091,-2.12366 0,-2.13815 1.095159,-1.75226 1.269622,-1.40308 1.870886,-0.80181 0.08909,0.0891 0.154579,0.21092 0.26727,0.26727 0.07968,0.0398 0.204273,-0.063 0.267269,0 0.063,0.063 -0.063,0.20427 0,0.26727 0.063,0.063 0.204274,-0.063 0.26727,0 0.01075,0.0108 0,0.97093 0,1.06908"
       id="path99"
       inkscape:connector-curvature="0" />
    <path
       style="fill:none;stroke:#000000;stroke-width:0.26458332px;stroke-linecap:butt;stroke-linejoin:miter;stroke-opacity:1"
       d="m 25.657876,262.78947 c -0.35636,-0.17818 -0.699153,-0.38657 -1.069078,-0.53454 -0.05679,-0.0227 -1.293871,-0.0213 -1.336348,0 -0.112691,0.0563 -0.210924,0.15458 -0.26727,0.26727 -0.04067,0.0813 0,0.68144 0,0.80181 0,0.0891 0,0.17818 0,0.26727 0,0.0891 -0.03984,0.18758 0,0.26727 0.556156,1.11231 -0.01845,-0.28572 0.53454,0.26727 0.063,0.063 -0.063,0.20427 0,0.26727 0.063,0.063 0.187585,-0.0398 0.267269,0 0.112691,0.0563 0.154579,0.21092 0.26727,0.26727 0.09665,0.0483 1.150451,0 1.336347,0 0.712719,0 -0.08909,0.0891 0.26727,-0.26727 0.063,-0.063 0.204273,0.063 0.267269,0 0.063,-0.063 0,-0.35636 0,-0.26727 0,0.53454 0,1.06907 0,1.60361 0,0.12037 -0.04067,0.72047 0,0.80181 0.05635,0.11269 0.210924,0.15458 0.26727,0.26727 0.07968,0.15937 -0.07968,0.37517 0,0.53454 0.05635,0.11269 0.210924,0.15458 0.267269,0.26727 0.03984,0.0797 0,0.17818 0,0.26727 0,0.0891 0,0.17818 0,0.26727"
       id="path101"
       inkscape:connector-curvature="0" />
    <path
       style="fill:none;stroke:#000000;stroke-width:0.26458332px;stroke-linecap:butt;stroke-linejoin:miter;stroke-opacity:1"
       d="m 29.934187,258.51316 c -0.267268,0.35636 -0.602596,0.67065 -0.801806,1.06908 -0.07968,0.15936 0.03494,0.35981 0,0.53453 -0.05525,0.27626 -0.212019,0.52556 -0.267272,0.80181 -0.03494,0.17472 0,0.35636 0,0.53454 0,0.53454 0,1.06908 0,1.60362 0,1.6927 0,3.38541 0,5.07812"
       id="path103"
       inkscape:connector-curvature="0" />
  </g>
  <g
     inkscape:groupmode="layer"
     id="layer2"
     inkscape:label="components"
     style="display:none"
     transform="translate(-1.336349,0.26728347)">
    <circle
       style="display:inline;opacity:1;vector-effect:none;fill:#ff0000;fill-opacity:1;fill-rule:evenodd;stroke:none;stroke-width:1;stroke-linecap:butt;stroke-linejoin:miter;stroke-miterlimit:4;stroke-dasharray:none;stroke-dashoffset:0;stroke-opacity:1;paint-order:normal"
       id="path4954"
       cx="15.24"
       cy="46.063263"
       r="4"
       inkscape:label="pitch" />
    <circle
       r="4"
       cy="77.477875"
       cx="15.24"
       id="circle4956"
       style="display:inline;opacity:1;vector-effect:none;fill:#00ff00;fill-opacity:1;fill-rule:evenodd;stroke:none;stroke-width:1;stroke-linecap:butt;stroke-linejoin:miter;stroke-miterlimit:4;stroke-dasharray:none;stroke-dashoffset:0;stroke-opacity:1;paint-order:normal"
       inkscape:label="pitch" />
    <circle
       style="display:inline;opacity:1;vector-effect:none;fill:#0000ff;fill-opacity:1;fill-rule:evenodd;stroke:none;stroke-width:1;stroke-linecap:butt;stroke-linejoin:miter;stroke-miterlimit:4;stroke-dasharray:none;stroke-dashoffset:0;stroke-opacity:1;paint-order:normal"
       id="circle4958"
       cx="15.24"
       cy="108.71259"
       r="4"
       inkscape:label="sine" />
    <circle
       inkscape:label="blink"
       cy="25.80987"
       cx="15.24"
       id="circle66"
       style="display:inline;opacity:1;vector-effect:none;fill:#ff00ff;fill-opacity:1;fill-rule:evenodd;stroke:none;stroke-width:1;stroke-linecap:butt;stroke-linejoin:miter;stroke-miterlimit:4;stroke-dasharray:none;stroke-dashoffset:0;stroke-opacity:1;paint-order:normal"
       r="4" />
    <rect
       id="rect3789"
       width="80.448128"
       height="78.309975"
       x="80.715393"
       y="30.679352"
       style="fill:#ffff00;stroke-width:0.26458332" />
  </g>
</svg>
